<svg xmlns="http://www.w3.org/2000/svg" xmlns:xlink="http://www.w3.org/1999/xlink" width="500" zoomAndPan="magnify" viewBox="0 0 375 374.999991" height="500" preserveAspectRatio="xMidYMid meet" version="1.0"><defs><g/></defs><g fill="#ddcb28" fill-opacity="1"><g transform="translate(113.939101, 318.836813)"><g><path d="M 180.21875 -208.359375 C 185.488281 -211.921875 191.765625 -214.707031 199.046875 -216.71875 C 206.335938 -218.738281 212.234375 -219.75 216.734375 -219.75 C 221.234375 -219.75 224.101562 -219.75 225.34375 -219.75 L 225.34375 -217.4375 C 218.050781 -217.125 211.226562 -215.6875 204.875 -213.125 C 198.519531 -210.570312 193.285156 -207.628906 189.171875 -204.296875 C 185.066406 -200.960938 181.078125 -196.539062 177.203125 -191.03125 C 173.328125 -185.53125 170.34375 -180.84375 168.25 -176.96875 C 166.15625 -173.09375 163.710938 -168.128906 160.921875 -162.078125 L 96.28125 -20.703125 C 90.539062 -8.140625 87.671875 -0.15625 87.671875 3.25 L 85.578125 3.25 L 20.234375 -145.8125 C 18.066406 -150.769531 15.082031 -154.445312 11.28125 -156.84375 C 7.476562 -159.25 3.640625 -160.453125 -0.234375 -160.453125 L -2.09375 -160.453125 L -2.09375 -162.78125 L 50.234375 -162.78125 L 50.234375 -160.453125 L 48.140625 -160.453125 C 43.484375 -160.453125 40.382812 -158.285156 38.84375 -153.953125 C 38.53125 -153.015625 38.375 -151.925781 38.375 -150.6875 C 38.375 -149.445312 38.757812 -147.898438 39.53125 -146.046875 L 88.140625 -24.1875 L 145.8125 -162.078125 C 154.957031 -183.628906 166.425781 -199.054688 180.21875 -208.359375 Z M 180.21875 -208.359375 "/></g></g></g><g fill="#ddcb28" fill-opacity="1"><g transform="translate(236.651505, 57.437513)"><g><path d="M -180.234375 208.375 C -185.503906 211.9375 -191.78125 214.722656 -199.0625 216.734375 C -206.351562 218.753906 -212.25 219.765625 -216.75 219.765625 C -221.25 219.765625 -224.117188 219.765625 -225.359375 219.765625 L -225.359375 217.453125 C -218.066406 217.140625 -211.242188 215.703125 -204.890625 213.140625 C -198.535156 210.585938 -193.300781 207.644531 -189.1875 204.3125 C -185.082031 200.976562 -181.09375 196.554688 -177.21875 191.046875 C -173.34375 185.546875 -170.359375 180.859375 -168.265625 176.984375 C -166.171875 173.109375 -163.726562 168.144531 -160.9375 162.09375 L -96.28125 20.703125 C -90.539062 8.140625 -87.671875 0.15625 -87.671875 -3.25 L -85.578125 -3.25 L -20.234375 145.8125 C -18.066406 150.78125 -15.082031 154.460938 -11.28125 156.859375 C -7.476562 159.265625 -3.640625 160.46875 0.234375 160.46875 L 2.09375 160.46875 L 2.09375 162.796875 L -50.234375 162.796875 L -50.234375 160.46875 L -48.140625 160.46875 C -43.492188 160.46875 -40.394531 158.296875 -38.84375 153.953125 C -38.53125 153.023438 -38.375 151.941406 -38.375 150.703125 C -38.375 149.460938 -38.757812 147.910156 -39.53125 146.046875 L -88.140625 24.1875 L -145.8125 162.09375 C -154.96875 183.644531 -166.441406 199.070312 -180.234375 208.375 Z M -180.234375 208.375 "/></g></g></g><g fill="#ff5757" fill-opacity="1"><g transform="translate(91.944883, 251.343411)"><g><path d="M 32.53125 -0.546875 C 32.6875 -0.546875 32.765625 -0.453125 32.765625 -0.265625 C 32.765625 -0.0859375 32.6875 0 32.53125 0 C 31.925781 0 30.988281 -0.03125 29.71875 -0.09375 C 28.382812 -0.15625 27.429688 -0.1875 26.859375 -0.1875 C 26.109375 -0.1875 25.1875 -0.15625 24.09375 -0.09375 C 23.0625 -0.03125 22.242188 0 21.640625 0 C 21.523438 0 21.46875 -0.0859375 21.46875 -0.265625 C 21.46875 -0.453125 21.523438 -0.546875 21.640625 -0.546875 C 22.429688 -0.546875 23 -0.628906 23.34375 -0.796875 C 23.695312 -0.960938 23.875 -1.253906 23.875 -1.671875 C 23.875 -2.191406 23.566406 -3.054688 22.953125 -4.265625 L 18.234375 -13.5625 L 10.15625 -13.5625 L 6.9375 -6.4375 C 6.550781 -5.5625 6.359375 -4.75 6.359375 -4 C 6.359375 -2.90625 6.742188 -2.054688 7.515625 -1.453125 C 8.285156 -0.847656 9.320312 -0.546875 10.625 -0.546875 C 10.769531 -0.546875 10.84375 -0.453125 10.84375 -0.265625 C 10.84375 -0.0859375 10.769531 0 10.625 0 C 10.070312 0 9.285156 -0.03125 8.265625 -0.09375 C 7.109375 -0.15625 6.109375 -0.1875 5.265625 -0.1875 C 4.441406 -0.1875 3.457031 -0.15625 2.3125 -0.09375 C 1.28125 -0.03125 0.445312 0 -0.1875 0 C -0.300781 0 -0.359375 -0.0859375 -0.359375 -0.265625 C -0.359375 -0.453125 -0.300781 -0.546875 -0.1875 -0.546875 C 0.664062 -0.546875 1.378906 -0.71875 1.953125 -1.0625 C 2.523438 -1.414062 3.097656 -2.035156 3.671875 -2.921875 C 4.242188 -3.816406 4.925781 -5.140625 5.71875 -6.890625 L 15.5625 -28.546875 C 15.625 -28.628906 15.757812 -28.671875 15.96875 -28.671875 C 16.207031 -28.671875 16.34375 -28.628906 16.375 -28.546875 L 27.71875 -6.21875 C 28.78125 -4.070312 29.660156 -2.585938 30.359375 -1.765625 C 31.054688 -0.953125 31.78125 -0.546875 32.53125 -0.546875 Z M 10.75 -14.84375 L 17.609375 -14.84375 L 13.96875 -22 Z M 10.75 -14.84375 "/></g></g></g><g fill="#ff5757" fill-opacity="1"><g transform="translate(133.949396, 251.343411)"><g><path d="M 32.125 -0.546875 C 32.1875 -0.546875 32.21875 -0.453125 32.21875 -0.265625 C 32.21875 -0.0859375 32.1875 0 32.125 0 L 24.046875 0 C 23.378906 0 22.140625 -1.242188 20.328125 -3.734375 C 18.515625 -6.234375 16.320312 -9.722656 13.75 -14.203125 C 13.507812 -14.171875 13.160156 -14.15625 12.703125 -14.15625 C 11.523438 -14.15625 10.691406 -14.171875 10.203125 -14.203125 L 10.203125 -3.671875 C 10.203125 -2.734375 10.273438 -2.050781 10.421875 -1.625 C 10.578125 -1.207031 10.875 -0.921875 11.3125 -0.765625 C 11.757812 -0.617188 12.46875 -0.546875 13.4375 -0.546875 C 13.488281 -0.546875 13.515625 -0.453125 13.515625 -0.265625 C 13.515625 -0.0859375 13.488281 0 13.4375 0 C 12.4375 0 11.648438 -0.015625 11.078125 -0.046875 L 7.625 -0.09375 L 4.3125 -0.046875 C 3.707031 -0.015625 2.890625 0 1.859375 0 C 1.765625 0 1.71875 -0.0859375 1.71875 -0.265625 C 1.71875 -0.453125 1.765625 -0.546875 1.859375 -0.546875 C 2.828125 -0.546875 3.53125 -0.617188 3.96875 -0.765625 C 4.40625 -0.921875 4.707031 -1.21875 4.875 -1.65625 C 5.039062 -2.09375 5.125 -2.765625 5.125 -3.671875 L 5.125 -24.6875 C 5.125 -25.59375 5.046875 -26.253906 4.890625 -26.671875 C 4.742188 -27.097656 4.441406 -27.394531 3.984375 -27.5625 C 3.535156 -27.726562 2.84375 -27.8125 1.90625 -27.8125 C 1.84375 -27.8125 1.8125 -27.898438 1.8125 -28.078125 C 1.8125 -28.265625 1.84375 -28.359375 1.90625 -28.359375 L 4.3125 -28.3125 C 5.695312 -28.25 6.800781 -28.21875 7.625 -28.21875 C 8.5 -28.21875 9.46875 -28.265625 10.53125 -28.359375 C 10.863281 -28.390625 11.289062 -28.421875 11.8125 -28.453125 C 12.34375 -28.484375 12.972656 -28.5 13.703125 -28.5 C 16.484375 -28.5 18.632812 -27.988281 20.15625 -26.96875 C 21.6875 -25.957031 22.453125 -24.546875 22.453125 -22.734375 C 22.453125 -21.335938 22.03125 -20.003906 21.1875 -18.734375 C 20.34375 -17.460938 19.238281 -16.4375 17.875 -15.65625 C 20.289062 -11.84375 22.320312 -8.863281 23.96875 -6.71875 C 25.625 -4.570312 27.09375 -3.003906 28.375 -2.015625 C 29.664062 -1.035156 30.914062 -0.546875 32.125 -0.546875 Z M 10.203125 -15.515625 C 10.929688 -15.398438 11.8125 -15.34375 12.84375 -15.34375 C 13.925781 -15.34375 14.785156 -15.503906 15.421875 -15.828125 C 16.054688 -16.160156 16.519531 -16.734375 16.8125 -17.546875 C 17.101562 -18.367188 17.25 -19.523438 17.25 -21.015625 C 17.25 -23.492188 16.882812 -25.203125 16.15625 -26.140625 C 15.425781 -27.078125 14.378906 -27.546875 13.015625 -27.546875 C 11.992188 -27.546875 11.269531 -27.316406 10.84375 -26.859375 C 10.414062 -26.410156 10.203125 -25.65625 10.203125 -24.59375 Z M 10.203125 -15.515625 "/></g></g></g><g fill="#ff5757" fill-opacity="1"><g transform="translate(175.137475, 251.343411)"><g><path d="M 7.890625 -23.78125 C 7.890625 -22.6875 8.171875 -21.71875 8.734375 -20.875 C 9.296875 -20.03125 9.984375 -19.289062 10.796875 -18.65625 C 11.617188 -18.019531 12.722656 -17.242188 14.109375 -16.328125 C 15.617188 -15.367188 16.828125 -14.523438 17.734375 -13.796875 C 18.648438 -13.066406 19.425781 -12.179688 20.0625 -11.140625 C 20.695312 -10.097656 21.015625 -8.894531 21.015625 -7.53125 C 21.015625 -5.957031 20.585938 -4.554688 19.734375 -3.328125 C 18.890625 -2.109375 17.71875 -1.15625 16.21875 -0.46875 C 14.71875 0.207031 13.046875 0.546875 11.203125 0.546875 C 9.847656 0.546875 8.425781 0.359375 6.9375 -0.015625 C 5.457031 -0.398438 4.460938 -0.816406 3.953125 -1.265625 C 3.796875 -1.390625 3.679688 -1.503906 3.609375 -1.609375 C 3.535156 -1.710938 3.5 -1.882812 3.5 -2.125 L 3.359375 -9.34375 L 3.359375 -9.390625 C 3.359375 -9.515625 3.429688 -9.582031 3.578125 -9.59375 C 3.734375 -9.613281 3.828125 -9.5625 3.859375 -9.4375 C 4.765625 -7.59375 5.554688 -6.09375 6.234375 -4.9375 C 6.921875 -3.789062 7.785156 -2.78125 8.828125 -1.90625 C 9.867188 -1.03125 11.054688 -0.59375 12.390625 -0.59375 C 13.597656 -0.59375 14.59375 -0.914062 15.375 -1.5625 C 16.164062 -2.21875 16.5625 -3.332031 16.5625 -4.90625 C 16.5625 -6.226562 16.265625 -7.390625 15.671875 -8.390625 C 15.085938 -9.390625 14.367188 -10.238281 13.515625 -10.9375 C 12.671875 -11.632812 11.507812 -12.46875 10.03125 -13.4375 C 8.570312 -14.375 7.441406 -15.171875 6.640625 -15.828125 C 5.835938 -16.492188 5.148438 -17.296875 4.578125 -18.234375 C 4.003906 -19.171875 3.71875 -20.273438 3.71875 -21.546875 C 3.71875 -23.148438 4.175781 -24.503906 5.09375 -25.609375 C 6.019531 -26.710938 7.207031 -27.53125 8.65625 -28.0625 C 10.113281 -28.59375 11.644531 -28.859375 13.25 -28.859375 C 14.3125 -28.859375 15.382812 -28.757812 16.46875 -28.5625 C 17.5625 -28.363281 18.441406 -28.128906 19.109375 -27.859375 C 19.378906 -27.734375 19.554688 -27.601562 19.640625 -27.46875 C 19.734375 -27.332031 19.78125 -27.160156 19.78125 -26.953125 L 19.78125 -20.28125 C 19.78125 -20.1875 19.703125 -20.117188 19.546875 -20.078125 C 19.398438 -20.035156 19.3125 -20.054688 19.28125 -20.140625 L 18.921875 -21.015625 C 18.160156 -22.921875 17.273438 -24.535156 16.265625 -25.859375 C 15.253906 -27.191406 13.84375 -27.859375 12.03125 -27.859375 C 10.8125 -27.859375 9.816406 -27.507812 9.046875 -26.8125 C 8.273438 -26.113281 7.890625 -25.101562 7.890625 -23.78125 Z M 7.890625 -23.78125 "/></g></g></g><g fill="#ff5757" fill-opacity="1"><g transform="translate(208.025171, 251.343411)"><g><path d="M 33.21875 -0.546875 C 33.300781 -0.546875 33.34375 -0.453125 33.34375 -0.265625 C 33.34375 -0.0859375 33.300781 0 33.21875 0 C 32.15625 0 31.304688 -0.015625 30.671875 -0.046875 L 27.1875 -0.09375 L 23.09375 -0.046875 C 22.550781 -0.015625 21.8125 0 20.875 0 C 20.78125 0 20.734375 -0.0859375 20.734375 -0.265625 C 20.734375 -0.453125 20.78125 -0.546875 20.875 -0.546875 C 21.988281 -0.546875 22.800781 -0.617188 23.3125 -0.765625 C 23.832031 -0.921875 24.179688 -1.207031 24.359375 -1.625 C 24.546875 -2.050781 24.640625 -2.734375 24.640625 -3.671875 L 24.640625 -14.109375 L 9.984375 -14.109375 L 9.984375 -3.671875 C 9.984375 -2.765625 10.070312 -2.09375 10.25 -1.65625 C 10.4375 -1.21875 10.785156 -0.921875 11.296875 -0.765625 C 11.804688 -0.617188 12.625 -0.546875 13.75 -0.546875 C 13.8125 -0.546875 13.84375 -0.453125 13.84375 -0.265625 C 13.84375 -0.0859375 13.8125 0 13.75 0 C 12.6875 0 11.835938 -0.015625 11.203125 -0.046875 L 7.265625 -0.09375 L 3.859375 -0.046875 C 3.253906 -0.015625 2.421875 0 1.359375 0 C 1.296875 0 1.265625 -0.0859375 1.265625 -0.265625 C 1.265625 -0.453125 1.296875 -0.546875 1.359375 -0.546875 C 2.421875 -0.546875 3.191406 -0.617188 3.671875 -0.765625 C 4.160156 -0.921875 4.492188 -1.21875 4.671875 -1.65625 C 4.859375 -2.09375 4.953125 -2.765625 4.953125 -3.671875 L 4.953125 -24.6875 C 4.953125 -25.59375 4.859375 -26.253906 4.671875 -26.671875 C 4.492188 -27.097656 4.171875 -27.394531 3.703125 -27.5625 C 3.234375 -27.726562 2.484375 -27.8125 1.453125 -27.8125 C 1.359375 -27.8125 1.3125 -27.898438 1.3125 -28.078125 C 1.3125 -28.265625 1.359375 -28.359375 1.453125 -28.359375 L 3.90625 -28.3125 C 5.289062 -28.25 6.410156 -28.21875 7.265625 -28.21875 C 8.410156 -28.21875 9.738281 -28.25 11.25 -28.3125 L 13.75 -28.359375 C 13.8125 -28.359375 13.84375 -28.265625 13.84375 -28.078125 C 13.84375 -27.898438 13.8125 -27.8125 13.75 -27.8125 C 12.65625 -27.8125 11.851562 -27.71875 11.34375 -27.53125 C 10.832031 -27.351562 10.476562 -27.046875 10.28125 -26.609375 C 10.082031 -26.171875 9.984375 -25.5 9.984375 -24.59375 L 9.984375 -15.375 L 24.640625 -15.375 L 24.640625 -24.59375 C 24.640625 -25.5 24.546875 -26.171875 24.359375 -26.609375 C 24.179688 -27.046875 23.832031 -27.351562 23.3125 -27.53125 C 22.800781 -27.71875 21.988281 -27.8125 20.875 -27.8125 C 20.78125 -27.8125 20.734375 -27.898438 20.734375 -28.078125 C 20.734375 -28.265625 20.78125 -28.359375 20.875 -28.359375 L 23.09375 -28.3125 C 24.601562 -28.25 25.96875 -28.21875 27.1875 -28.21875 C 28 -28.21875 29.160156 -28.25 30.671875 -28.3125 L 33.21875 -28.359375 C 33.300781 -28.359375 33.34375 -28.265625 33.34375 -28.078125 C 33.34375 -27.898438 33.300781 -27.8125 33.21875 -27.8125 C 32.1875 -27.8125 31.421875 -27.726562 30.921875 -27.5625 C 30.421875 -27.394531 30.085938 -27.097656 29.921875 -26.671875 C 29.753906 -26.253906 29.671875 -25.59375 29.671875 -24.6875 L 29.671875 -3.671875 C 29.671875 -2.765625 29.753906 -2.09375 29.921875 -1.65625 C 30.085938 -1.21875 30.410156 -0.921875 30.890625 -0.765625 C 31.378906 -0.617188 32.15625 -0.546875 33.21875 -0.546875 Z M 33.21875 -0.546875 "/></g></g></g><g fill="#ff5757" fill-opacity="1"><g transform="translate(252.20682, 251.343411)"><g><path d="M 32.53125 -0.546875 C 32.6875 -0.546875 32.765625 -0.453125 32.765625 -0.265625 C 32.765625 -0.0859375 32.6875 0 32.53125 0 C 31.925781 0 30.988281 -0.03125 29.71875 -0.09375 C 28.382812 -0.15625 27.429688 -0.1875 26.859375 -0.1875 C 26.109375 -0.1875 25.1875 -0.15625 24.09375 -0.09375 C 23.0625 -0.03125 22.242188 0 21.640625 0 C 21.523438 0 21.46875 -0.0859375 21.46875 -0.265625 C 21.46875 -0.453125 21.523438 -0.546875 21.640625 -0.546875 C 22.429688 -0.546875 23 -0.628906 23.34375 -0.796875 C 23.695312 -0.960938 23.875 -1.253906 23.875 -1.671875 C 23.875 -2.191406 23.566406 -3.054688 22.953125 -4.265625 L 18.234375 -13.5625 L 10.15625 -13.5625 L 6.9375 -6.4375 C 6.550781 -5.5625 6.359375 -4.75 6.359375 -4 C 6.359375 -2.90625 6.742188 -2.054688 7.515625 -1.453125 C 8.285156 -0.847656 9.320312 -0.546875 10.625 -0.546875 C 10.769531 -0.546875 10.84375 -0.453125 10.84375 -0.265625 C 10.84375 -0.0859375 10.769531 0 10.625 0 C 10.070312 0 9.285156 -0.03125 8.265625 -0.09375 C 7.109375 -0.15625 6.109375 -0.1875 5.265625 -0.1875 C 4.441406 -0.1875 3.457031 -0.15625 2.3125 -0.09375 C 1.28125 -0.03125 0.445312 0 -0.1875 0 C -0.300781 0 -0.359375 -0.0859375 -0.359375 -0.265625 C -0.359375 -0.453125 -0.300781 -0.546875 -0.1875 -0.546875 C 0.664062 -0.546875 1.378906 -0.71875 1.953125 -1.0625 C 2.523438 -1.414062 3.097656 -2.035156 3.671875 -2.921875 C 4.242188 -3.816406 4.925781 -5.140625 5.71875 -6.890625 L 15.5625 -28.546875 C 15.625 -28.628906 15.757812 -28.671875 15.96875 -28.671875 C 16.207031 -28.671875 16.34375 -28.628906 16.375 -28.546875 L 27.71875 -6.21875 C 28.78125 -4.070312 29.660156 -2.585938 30.359375 -1.765625 C 31.054688 -0.953125 31.78125 -0.546875 32.53125 -0.546875 Z M 10.75 -14.84375 L 17.609375 -14.84375 L 13.96875 -22 Z M 10.75 -14.84375 "/></g></g></g><g fill="#ff5757" fill-opacity="1"><g transform="translate(294.211328, 251.343411)"><g><path d="M 14.796875 0.1875 C 13.828125 0.1875 12.675781 0.140625 11.34375 0.046875 C 10.863281 0.015625 10.265625 -0.015625 9.546875 -0.046875 C 8.835938 -0.078125 8.046875 -0.09375 7.171875 -0.09375 L 3.8125 -0.046875 C 3.207031 -0.015625 2.390625 0 1.359375 0 C 1.296875 0 1.265625 -0.0859375 1.265625 -0.265625 C 1.265625 -0.453125 1.296875 -0.546875 1.359375 -0.546875 C 2.328125 -0.546875 3.035156 -0.617188 3.484375 -0.765625 C 3.941406 -0.921875 4.253906 -1.21875 4.421875 -1.65625 C 4.585938 -2.09375 4.671875 -2.765625 4.671875 -3.671875 L 4.671875 -24.6875 C 4.671875 -25.59375 4.585938 -26.253906 4.421875 -26.671875 C 4.253906 -27.097656 3.953125 -27.394531 3.515625 -27.5625 C 3.078125 -27.726562 2.390625 -27.8125 1.453125 -27.8125 C 1.359375 -27.8125 1.3125 -27.898438 1.3125 -28.078125 C 1.3125 -28.265625 1.359375 -28.359375 1.453125 -28.359375 L 3.859375 -28.3125 C 5.242188 -28.25 6.347656 -28.21875 7.171875 -28.21875 C 8.410156 -28.21875 9.679688 -28.265625 10.984375 -28.359375 C 12.554688 -28.421875 13.613281 -28.453125 14.15625 -28.453125 C 17.207031 -28.453125 19.921875 -27.84375 22.296875 -26.625 C 24.671875 -25.414062 26.507812 -23.769531 27.8125 -21.6875 C 29.113281 -19.601562 29.765625 -17.257812 29.765625 -14.65625 C 29.765625 -11.71875 29.09375 -9.125 27.75 -6.875 C 26.40625 -4.625 24.585938 -2.882812 22.296875 -1.65625 C 20.015625 -0.425781 17.515625 0.1875 14.796875 0.1875 Z M 14.34375 -0.859375 C 16.28125 -0.859375 17.988281 -1.347656 19.46875 -2.328125 C 20.945312 -3.316406 22.101562 -4.78125 22.9375 -6.71875 C 23.769531 -8.65625 24.1875 -10.96875 24.1875 -13.65625 C 24.1875 -16.226562 23.789062 -18.566406 23 -20.671875 C 22.21875 -22.773438 21.097656 -24.429688 19.640625 -25.640625 C 18.191406 -26.847656 16.515625 -27.453125 14.609375 -27.453125 C 12.734375 -27.453125 11.445312 -27.269531 10.75 -26.90625 C 10.050781 -26.539062 9.703125 -25.769531 9.703125 -24.59375 L 9.703125 -4.171875 C 9.703125 -2.960938 10.019531 -2.109375 10.65625 -1.609375 C 11.289062 -1.109375 12.519531 -0.859375 14.34375 -0.859375 Z M 14.34375 -0.859375 "/></g></g></g><g fill="#ff5757" fill-opacity="1"><g transform="translate(335.729819, 251.343411)"><g/></g></g></svg>