<svg xmlns="http://www.w3.org/2000/svg" xmlns:xlink="http://www.w3.org/1999/xlink" width="500" zoomAndPan="magnify" viewBox="0 0 375 374.999991" height="500" preserveAspectRatio="xMidYMid meet" version="1.0"><defs><g/><clipPath id="3feb5347ad"><path d="M 167.714844 265.011719 L 230.714844 265.011719 L 230.714844 295.761719 L 167.714844 295.761719 Z M 167.714844 265.011719 " clip-rule="nonzero"/></clipPath></defs><g fill="#ddcb28" fill-opacity="1"><g transform="translate(113.939101, 318.836813)"><g><path d="M 180.21875 -208.359375 C 185.488281 -211.921875 191.765625 -214.707031 199.046875 -216.71875 C 206.335938 -218.738281 212.234375 -219.75 216.734375 -219.75 C 221.234375 -219.75 224.101562 -219.75 225.34375 -219.75 L 225.34375 -217.4375 C 218.050781 -217.125 211.226562 -215.6875 204.875 -213.125 C 198.519531 -210.570312 193.285156 -207.628906 189.171875 -204.296875 C 185.066406 -200.960938 181.078125 -196.539062 177.203125 -191.03125 C 173.328125 -185.53125 170.34375 -180.84375 168.25 -176.96875 C 166.15625 -173.09375 163.710938 -168.128906 160.921875 -162.078125 L 96.28125 -20.703125 C 90.539062 -8.140625 87.671875 -0.15625 87.671875 3.25 L 85.578125 3.25 L 20.234375 -145.8125 C 18.066406 -150.769531 15.082031 -154.445312 11.28125 -156.84375 C 7.476562 -159.25 3.640625 -160.453125 -0.234375 -160.453125 L -2.09375 -160.453125 L -2.09375 -162.78125 L 50.234375 -162.78125 L 50.234375 -160.453125 L 48.140625 -160.453125 C 43.484375 -160.453125 40.382812 -158.285156 38.84375 -153.953125 C 38.53125 -153.015625 38.375 -151.925781 38.375 -150.6875 C 38.375 -149.445312 38.757812 -147.898438 39.53125 -146.046875 L 88.140625 -24.1875 L 145.8125 -162.078125 C 154.957031 -183.628906 166.425781 -199.054688 180.21875 -208.359375 Z M 180.21875 -208.359375 "/></g></g></g><g fill="#ddcb28" fill-opacity="1"><g transform="translate(236.651505, 57.437513)"><g><path d="M -180.234375 208.375 C -185.503906 211.9375 -191.78125 214.722656 -199.0625 216.734375 C -206.351562 218.753906 -212.25 219.765625 -216.75 219.765625 C -221.25 219.765625 -224.117188 219.765625 -225.359375 219.765625 L -225.359375 217.453125 C -218.066406 217.140625 -211.242188 215.703125 -204.890625 213.140625 C -198.535156 210.585938 -193.300781 207.644531 -189.1875 204.3125 C -185.082031 200.976562 -181.09375 196.554688 -177.21875 191.046875 C -173.34375 185.546875 -170.359375 180.859375 -168.265625 176.984375 C -166.171875 173.109375 -163.726562 168.144531 -160.9375 162.09375 L -96.28125 20.703125 C -90.539062 8.140625 -87.671875 0.15625 -87.671875 -3.25 L -85.578125 -3.25 L -20.234375 145.8125 C -18.066406 150.78125 -15.082031 154.460938 -11.28125 156.859375 C -7.476562 159.265625 -3.640625 160.46875 0.234375 160.46875 L 2.09375 160.46875 L 2.09375 162.796875 L -50.234375 162.796875 L -50.234375 160.46875 L -48.140625 160.46875 C -43.492188 160.46875 -40.394531 158.296875 -38.84375 153.953125 C -38.53125 153.023438 -38.375 151.941406 -38.375 150.703125 C -38.375 149.460938 -38.757812 147.910156 -39.53125 146.046875 L -88.140625 24.1875 L -145.8125 162.09375 C -154.96875 183.644531 -166.441406 199.070312 -180.234375 208.375 Z M -180.234375 208.375 "/></g></g></g><g clip-path="url(#3feb5347ad)"><path fill="#ffffff" d="M 167.714844 265.011719 L 230.714844 265.011719 L 230.714844 295.761719 L 167.714844 295.761719 Z M 167.714844 265.011719 " fill-opacity="1" fill-rule="nonzero"/></g><g fill="#ddcb28" fill-opacity="1"><g transform="translate(37.193167, 289.88961)"><g><path d="M 21.4375 -0.359375 C 21.539062 -0.359375 21.59375 -0.296875 21.59375 -0.171875 C 21.59375 -0.0546875 21.539062 0 21.4375 0 C 21.039062 0 20.425781 -0.0195312 19.59375 -0.0625 C 18.707031 -0.101562 18.078125 -0.125 17.703125 -0.125 C 17.203125 -0.125 16.59375 -0.101562 15.875 -0.0625 C 15.195312 -0.0195312 14.660156 0 14.265625 0 C 14.179688 0 14.140625 -0.0546875 14.140625 -0.171875 C 14.140625 -0.296875 14.179688 -0.359375 14.265625 -0.359375 C 14.785156 -0.359375 15.160156 -0.410156 15.390625 -0.515625 C 15.617188 -0.628906 15.734375 -0.828125 15.734375 -1.109375 C 15.734375 -1.441406 15.53125 -2.007812 15.125 -2.8125 L 12.015625 -8.9375 L 6.703125 -8.9375 L 4.578125 -4.25 C 4.316406 -3.664062 4.1875 -3.125 4.1875 -2.625 C 4.1875 -1.914062 4.441406 -1.359375 4.953125 -0.953125 C 5.460938 -0.554688 6.144531 -0.359375 7 -0.359375 C 7.09375 -0.359375 7.140625 -0.296875 7.140625 -0.171875 C 7.140625 -0.0546875 7.09375 0 7 0 C 6.632812 0 6.113281 -0.0195312 5.4375 -0.0625 C 4.6875 -0.101562 4.03125 -0.125 3.46875 -0.125 C 2.925781 -0.125 2.28125 -0.101562 1.53125 -0.0625 C 0.851562 -0.0195312 0.300781 0 -0.125 0 C -0.195312 0 -0.234375 -0.0546875 -0.234375 -0.171875 C -0.234375 -0.296875 -0.195312 -0.359375 -0.125 -0.359375 C 0.4375 -0.359375 0.90625 -0.472656 1.28125 -0.703125 C 1.664062 -0.929688 2.046875 -1.335938 2.421875 -1.921875 C 2.796875 -2.515625 3.242188 -3.390625 3.765625 -4.546875 L 10.265625 -18.8125 C 10.296875 -18.875 10.382812 -18.90625 10.53125 -18.90625 C 10.6875 -18.90625 10.773438 -18.875 10.796875 -18.8125 L 18.265625 -4.09375 C 18.960938 -2.675781 19.539062 -1.695312 20 -1.15625 C 20.457031 -0.625 20.9375 -0.359375 21.4375 -0.359375 Z M 7.09375 -9.78125 L 11.609375 -9.78125 L 9.21875 -14.5 Z M 7.09375 -9.78125 "/></g></g></g><g fill="#ddcb28" fill-opacity="1"><g transform="translate(64.877743, 289.88961)"><g><path d="M 21.171875 -0.359375 C 21.210938 -0.359375 21.234375 -0.296875 21.234375 -0.171875 C 21.234375 -0.0546875 21.210938 0 21.171875 0 L 15.84375 0 C 15.40625 0 14.585938 -0.820312 13.390625 -2.46875 C 12.203125 -4.113281 10.757812 -6.410156 9.0625 -9.359375 C 8.90625 -9.335938 8.675781 -9.328125 8.375 -9.328125 C 7.59375 -9.328125 7.046875 -9.335938 6.734375 -9.359375 L 6.734375 -2.421875 C 6.734375 -1.804688 6.78125 -1.359375 6.875 -1.078125 C 6.976562 -0.796875 7.171875 -0.601562 7.453125 -0.5 C 7.742188 -0.40625 8.210938 -0.359375 8.859375 -0.359375 C 8.890625 -0.359375 8.90625 -0.296875 8.90625 -0.171875 C 8.90625 -0.0546875 8.890625 0 8.859375 0 C 8.191406 0 7.671875 -0.0078125 7.296875 -0.03125 L 5.03125 -0.0625 L 2.84375 -0.03125 C 2.445312 -0.0078125 1.90625 0 1.21875 0 C 1.164062 0 1.140625 -0.0546875 1.140625 -0.171875 C 1.140625 -0.296875 1.164062 -0.359375 1.21875 -0.359375 C 1.863281 -0.359375 2.328125 -0.40625 2.609375 -0.5 C 2.898438 -0.601562 3.097656 -0.800781 3.203125 -1.09375 C 3.316406 -1.382812 3.375 -1.828125 3.375 -2.421875 L 3.375 -16.265625 C 3.375 -16.867188 3.320312 -17.304688 3.21875 -17.578125 C 3.125 -17.859375 2.925781 -18.050781 2.625 -18.15625 C 2.332031 -18.269531 1.875 -18.328125 1.25 -18.328125 C 1.21875 -18.328125 1.203125 -18.382812 1.203125 -18.5 C 1.203125 -18.625 1.21875 -18.6875 1.25 -18.6875 L 2.84375 -18.65625 C 3.757812 -18.625 4.488281 -18.609375 5.03125 -18.609375 C 5.601562 -18.609375 6.238281 -18.632812 6.9375 -18.6875 C 7.15625 -18.707031 7.4375 -18.726562 7.78125 -18.75 C 8.132812 -18.769531 8.550781 -18.78125 9.03125 -18.78125 C 10.863281 -18.78125 12.28125 -18.445312 13.28125 -17.78125 C 14.289062 -17.113281 14.796875 -16.179688 14.796875 -14.984375 C 14.796875 -14.066406 14.515625 -13.1875 13.953125 -12.34375 C 13.398438 -11.507812 12.675781 -10.832031 11.78125 -10.3125 C 13.375 -7.800781 14.710938 -5.835938 15.796875 -4.421875 C 16.890625 -3.003906 17.859375 -1.972656 18.703125 -1.328125 C 19.554688 -0.679688 20.378906 -0.359375 21.171875 -0.359375 Z M 6.734375 -10.234375 C 7.210938 -10.148438 7.789062 -10.109375 8.46875 -10.109375 C 9.1875 -10.109375 9.753906 -10.21875 10.171875 -10.4375 C 10.585938 -10.65625 10.890625 -11.03125 11.078125 -11.5625 C 11.265625 -12.101562 11.359375 -12.863281 11.359375 -13.84375 C 11.359375 -15.476562 11.117188 -16.601562 10.640625 -17.21875 C 10.160156 -17.84375 9.472656 -18.15625 8.578125 -18.15625 C 7.898438 -18.15625 7.421875 -18.003906 7.140625 -17.703125 C 6.867188 -17.398438 6.734375 -16.898438 6.734375 -16.203125 Z M 6.734375 -10.234375 "/></g></g></g><g fill="#ddcb28" fill-opacity="1"><g transform="translate(92.024221, 289.88961)"><g><path d="M 5.203125 -15.671875 C 5.203125 -14.953125 5.382812 -14.3125 5.75 -13.75 C 6.125 -13.195312 6.578125 -12.707031 7.109375 -12.28125 C 7.648438 -11.863281 8.378906 -11.359375 9.296875 -10.765625 C 10.296875 -10.128906 11.09375 -9.570312 11.6875 -9.09375 C 12.289062 -8.613281 12.800781 -8.03125 13.21875 -7.34375 C 13.632812 -6.65625 13.84375 -5.863281 13.84375 -4.96875 C 13.84375 -3.925781 13.5625 -3 13 -2.1875 C 12.445312 -1.382812 11.675781 -0.757812 10.6875 -0.3125 C 9.707031 0.132812 8.609375 0.359375 7.390625 0.359375 C 6.492188 0.359375 5.554688 0.234375 4.578125 -0.015625 C 3.597656 -0.265625 2.941406 -0.539062 2.609375 -0.84375 C 2.503906 -0.914062 2.425781 -0.988281 2.375 -1.0625 C 2.320312 -1.132812 2.296875 -1.25 2.296875 -1.40625 L 2.21875 -6.15625 L 2.21875 -6.1875 C 2.21875 -6.269531 2.265625 -6.316406 2.359375 -6.328125 C 2.460938 -6.335938 2.523438 -6.300781 2.546875 -6.21875 C 3.140625 -5 3.660156 -4.007812 4.109375 -3.25 C 4.554688 -2.5 5.125 -1.832031 5.8125 -1.25 C 6.5 -0.675781 7.285156 -0.390625 8.171875 -0.390625 C 8.960938 -0.390625 9.617188 -0.601562 10.140625 -1.03125 C 10.660156 -1.457031 10.921875 -2.191406 10.921875 -3.234375 C 10.921875 -4.109375 10.722656 -4.875 10.328125 -5.53125 C 9.941406 -6.1875 9.46875 -6.742188 8.90625 -7.203125 C 8.351562 -7.660156 7.585938 -8.210938 6.609375 -8.859375 C 5.648438 -9.472656 4.90625 -10 4.375 -10.4375 C 3.851562 -10.875 3.398438 -11.398438 3.015625 -12.015625 C 2.640625 -12.640625 2.453125 -13.367188 2.453125 -14.203125 C 2.453125 -15.265625 2.753906 -16.15625 3.359375 -16.875 C 3.972656 -17.601562 4.753906 -18.140625 5.703125 -18.484375 C 6.660156 -18.835938 7.671875 -19.015625 8.734375 -19.015625 C 9.429688 -19.015625 10.140625 -18.945312 10.859375 -18.8125 C 11.578125 -18.6875 12.15625 -18.535156 12.59375 -18.359375 C 12.769531 -18.285156 12.890625 -18.203125 12.953125 -18.109375 C 13.015625 -18.015625 13.046875 -17.898438 13.046875 -17.765625 L 13.046875 -13.375 C 13.046875 -13.3125 12.992188 -13.265625 12.890625 -13.234375 C 12.785156 -13.203125 12.722656 -13.21875 12.703125 -13.28125 L 12.46875 -13.84375 C 11.96875 -15.101562 11.382812 -16.171875 10.71875 -17.046875 C 10.050781 -17.921875 9.117188 -18.359375 7.921875 -18.359375 C 7.128906 -18.359375 6.476562 -18.128906 5.96875 -17.671875 C 5.457031 -17.210938 5.203125 -16.546875 5.203125 -15.671875 Z M 5.203125 -15.671875 "/></g></g></g><g fill="#ddcb28" fill-opacity="1"><g transform="translate(113.700042, 289.88961)"><g><path d="M 21.890625 -0.359375 C 21.953125 -0.359375 21.984375 -0.296875 21.984375 -0.171875 C 21.984375 -0.0546875 21.953125 0 21.890625 0 C 21.191406 0 20.632812 -0.0078125 20.21875 -0.03125 L 17.90625 -0.0625 L 15.21875 -0.03125 C 14.863281 -0.0078125 14.375 0 13.75 0 C 13.695312 0 13.671875 -0.0546875 13.671875 -0.171875 C 13.671875 -0.296875 13.695312 -0.359375 13.75 -0.359375 C 14.488281 -0.359375 15.023438 -0.40625 15.359375 -0.5 C 15.703125 -0.601562 15.929688 -0.796875 16.046875 -1.078125 C 16.171875 -1.359375 16.234375 -1.804688 16.234375 -2.421875 L 16.234375 -9.296875 L 6.578125 -9.296875 L 6.578125 -2.421875 C 6.578125 -1.828125 6.632812 -1.382812 6.75 -1.09375 C 6.875 -0.800781 7.101562 -0.601562 7.4375 -0.5 C 7.78125 -0.40625 8.320312 -0.359375 9.0625 -0.359375 C 9.101562 -0.359375 9.125 -0.296875 9.125 -0.171875 C 9.125 -0.0546875 9.101562 0 9.0625 0 C 8.363281 0 7.804688 -0.0078125 7.390625 -0.03125 L 4.78125 -0.0625 L 2.546875 -0.03125 C 2.140625 -0.0078125 1.585938 0 0.890625 0 C 0.859375 0 0.84375 -0.0546875 0.84375 -0.171875 C 0.84375 -0.296875 0.859375 -0.359375 0.890625 -0.359375 C 1.585938 -0.359375 2.097656 -0.40625 2.421875 -0.5 C 2.742188 -0.601562 2.960938 -0.800781 3.078125 -1.09375 C 3.203125 -1.382812 3.265625 -1.828125 3.265625 -2.421875 L 3.265625 -16.265625 C 3.265625 -16.867188 3.203125 -17.304688 3.078125 -17.578125 C 2.960938 -17.859375 2.75 -18.050781 2.4375 -18.15625 C 2.125 -18.269531 1.628906 -18.328125 0.953125 -18.328125 C 0.898438 -18.328125 0.875 -18.382812 0.875 -18.5 C 0.875 -18.625 0.898438 -18.6875 0.953125 -18.6875 L 2.578125 -18.65625 C 3.492188 -18.625 4.226562 -18.609375 4.78125 -18.609375 C 5.539062 -18.609375 6.421875 -18.625 7.421875 -18.65625 L 9.0625 -18.6875 C 9.101562 -18.6875 9.125 -18.625 9.125 -18.5 C 9.125 -18.382812 9.101562 -18.328125 9.0625 -18.328125 C 8.34375 -18.328125 7.8125 -18.265625 7.46875 -18.140625 C 7.132812 -18.023438 6.898438 -17.820312 6.765625 -17.53125 C 6.640625 -17.25 6.578125 -16.804688 6.578125 -16.203125 L 6.578125 -10.140625 L 16.234375 -10.140625 L 16.234375 -16.203125 C 16.234375 -16.804688 16.171875 -17.25 16.046875 -17.53125 C 15.929688 -17.820312 15.703125 -18.023438 15.359375 -18.140625 C 15.023438 -18.265625 14.488281 -18.328125 13.75 -18.328125 C 13.695312 -18.328125 13.671875 -18.382812 13.671875 -18.5 C 13.671875 -18.625 13.695312 -18.6875 13.75 -18.6875 L 15.21875 -18.65625 C 16.21875 -18.625 17.113281 -18.609375 17.90625 -18.609375 C 18.445312 -18.609375 19.21875 -18.625 20.21875 -18.65625 L 21.890625 -18.6875 C 21.953125 -18.6875 21.984375 -18.625 21.984375 -18.5 C 21.984375 -18.382812 21.953125 -18.328125 21.890625 -18.328125 C 21.210938 -18.328125 20.707031 -18.269531 20.375 -18.15625 C 20.050781 -18.050781 19.832031 -17.859375 19.71875 -17.578125 C 19.613281 -17.304688 19.5625 -16.867188 19.5625 -16.265625 L 19.5625 -2.421875 C 19.5625 -1.828125 19.613281 -1.382812 19.71875 -1.09375 C 19.832031 -0.800781 20.046875 -0.601562 20.359375 -0.5 C 20.679688 -0.40625 21.191406 -0.359375 21.890625 -0.359375 Z M 21.890625 -0.359375 "/></g></g></g><g fill="#ddcb28" fill-opacity="1"><g transform="translate(142.819547, 289.88961)"><g><path d="M 21.4375 -0.359375 C 21.539062 -0.359375 21.59375 -0.296875 21.59375 -0.171875 C 21.59375 -0.0546875 21.539062 0 21.4375 0 C 21.039062 0 20.425781 -0.0195312 19.59375 -0.0625 C 18.707031 -0.101562 18.078125 -0.125 17.703125 -0.125 C 17.203125 -0.125 16.59375 -0.101562 15.875 -0.0625 C 15.195312 -0.0195312 14.660156 0 14.265625 0 C 14.179688 0 14.140625 -0.0546875 14.140625 -0.171875 C 14.140625 -0.296875 14.179688 -0.359375 14.265625 -0.359375 C 14.785156 -0.359375 15.160156 -0.410156 15.390625 -0.515625 C 15.617188 -0.628906 15.734375 -0.828125 15.734375 -1.109375 C 15.734375 -1.441406 15.53125 -2.007812 15.125 -2.8125 L 12.015625 -8.9375 L 6.703125 -8.9375 L 4.578125 -4.25 C 4.316406 -3.664062 4.1875 -3.125 4.1875 -2.625 C 4.1875 -1.914062 4.441406 -1.359375 4.953125 -0.953125 C 5.460938 -0.554688 6.144531 -0.359375 7 -0.359375 C 7.09375 -0.359375 7.140625 -0.296875 7.140625 -0.171875 C 7.140625 -0.0546875 7.09375 0 7 0 C 6.632812 0 6.113281 -0.0195312 5.4375 -0.0625 C 4.6875 -0.101562 4.03125 -0.125 3.46875 -0.125 C 2.925781 -0.125 2.28125 -0.101562 1.53125 -0.0625 C 0.851562 -0.0195312 0.300781 0 -0.125 0 C -0.195312 0 -0.234375 -0.0546875 -0.234375 -0.171875 C -0.234375 -0.296875 -0.195312 -0.359375 -0.125 -0.359375 C 0.4375 -0.359375 0.90625 -0.472656 1.28125 -0.703125 C 1.664062 -0.929688 2.046875 -1.335938 2.421875 -1.921875 C 2.796875 -2.515625 3.242188 -3.390625 3.765625 -4.546875 L 10.265625 -18.8125 C 10.296875 -18.875 10.382812 -18.90625 10.53125 -18.90625 C 10.6875 -18.90625 10.773438 -18.875 10.796875 -18.8125 L 18.265625 -4.09375 C 18.960938 -2.675781 19.539062 -1.695312 20 -1.15625 C 20.457031 -0.625 20.9375 -0.359375 21.4375 -0.359375 Z M 7.09375 -9.78125 L 11.609375 -9.78125 L 9.21875 -14.5 Z M 7.09375 -9.78125 "/></g></g></g><g fill="#ddcb28" fill-opacity="1"><g transform="translate(170.504124, 289.88961)"><g><path d="M 9.75 0.125 C 9.113281 0.125 8.359375 0.09375 7.484375 0.03125 C 7.160156 0.0078125 6.765625 -0.0078125 6.296875 -0.03125 C 5.828125 -0.0507812 5.300781 -0.0625 4.71875 -0.0625 L 2.515625 -0.03125 C 2.109375 -0.0078125 1.566406 0 0.890625 0 C 0.859375 0 0.84375 -0.0546875 0.84375 -0.171875 C 0.84375 -0.296875 0.859375 -0.359375 0.890625 -0.359375 C 1.535156 -0.359375 2.003906 -0.40625 2.296875 -0.5 C 2.597656 -0.601562 2.800781 -0.800781 2.90625 -1.09375 C 3.019531 -1.382812 3.078125 -1.828125 3.078125 -2.421875 L 3.078125 -16.265625 C 3.078125 -16.867188 3.019531 -17.304688 2.90625 -17.578125 C 2.800781 -17.859375 2.601562 -18.050781 2.3125 -18.15625 C 2.03125 -18.269531 1.578125 -18.328125 0.953125 -18.328125 C 0.898438 -18.328125 0.875 -18.382812 0.875 -18.5 C 0.875 -18.625 0.898438 -18.6875 0.953125 -18.6875 L 2.546875 -18.65625 C 3.460938 -18.625 4.1875 -18.609375 4.71875 -18.609375 C 5.539062 -18.609375 6.378906 -18.632812 7.234375 -18.6875 C 8.273438 -18.726562 8.972656 -18.75 9.328125 -18.75 C 11.335938 -18.75 13.125 -18.347656 14.6875 -17.546875 C 16.257812 -16.753906 17.472656 -15.671875 18.328125 -14.296875 C 19.191406 -12.921875 19.625 -11.375 19.625 -9.65625 C 19.625 -7.726562 19.175781 -6.019531 18.28125 -4.53125 C 17.394531 -3.039062 16.195312 -1.890625 14.6875 -1.078125 C 13.1875 -0.273438 11.539062 0.125 9.75 0.125 Z M 9.453125 -0.5625 C 10.722656 -0.5625 11.847656 -0.882812 12.828125 -1.53125 C 13.804688 -2.1875 14.566406 -3.148438 15.109375 -4.421875 C 15.660156 -5.703125 15.9375 -7.226562 15.9375 -9 C 15.9375 -10.695312 15.675781 -12.238281 15.15625 -13.625 C 14.644531 -15.007812 13.910156 -16.097656 12.953125 -16.890625 C 11.992188 -17.691406 10.882812 -18.09375 9.625 -18.09375 C 8.394531 -18.09375 7.550781 -17.972656 7.09375 -17.734375 C 6.632812 -17.492188 6.40625 -16.984375 6.40625 -16.203125 L 6.40625 -2.75 C 6.40625 -1.957031 6.613281 -1.394531 7.03125 -1.0625 C 7.445312 -0.726562 8.253906 -0.5625 9.453125 -0.5625 Z M 9.453125 -0.5625 "/></g></g></g><g fill="#ddcb28" fill-opacity="1"><g transform="translate(197.859868, 289.88961)"><g/></g></g><g fill="#ddcb28" fill-opacity="1"><g transform="translate(211.135367, 289.88961)"><g><path d="M 19.890625 -18.6875 C 19.953125 -18.6875 19.984375 -18.625 19.984375 -18.5 C 19.984375 -18.382812 19.953125 -18.328125 19.890625 -18.328125 C 19.171875 -18.328125 18.484375 -18.007812 17.828125 -17.375 C 17.171875 -16.738281 16.640625 -15.878906 16.234375 -14.796875 L 10.703125 -0.03125 C 10.679688 0.0507812 10.570312 0.09375 10.375 0.09375 C 10.175781 0.09375 10.066406 0.0507812 10.046875 -0.03125 L 2.421875 -16.203125 C 2.066406 -16.921875 1.707031 -17.453125 1.34375 -17.796875 C 0.988281 -18.148438 0.59375 -18.328125 0.15625 -18.328125 C 0.09375 -18.328125 0.0625 -18.382812 0.0625 -18.5 C 0.0625 -18.625 0.09375 -18.6875 0.15625 -18.6875 C 0.445312 -18.6875 0.65625 -18.675781 0.78125 -18.65625 C 1.175781 -18.625 1.691406 -18.609375 2.328125 -18.609375 C 4.046875 -18.609375 5.503906 -18.625 6.703125 -18.65625 C 7.015625 -18.675781 7.410156 -18.6875 7.890625 -18.6875 C 7.953125 -18.6875 7.984375 -18.625 7.984375 -18.5 C 7.984375 -18.382812 7.953125 -18.328125 7.890625 -18.328125 C 7.296875 -18.328125 6.832031 -18.203125 6.5 -17.953125 C 6.175781 -17.703125 6.015625 -17.347656 6.015625 -16.890625 C 6.015625 -16.554688 6.125 -16.148438 6.34375 -15.671875 L 11.515625 -4.640625 L 15.40625 -14.890625 C 15.601562 -15.453125 15.703125 -15.929688 15.703125 -16.328125 C 15.703125 -16.941406 15.515625 -17.425781 15.140625 -17.78125 C 14.773438 -18.144531 14.242188 -18.328125 13.546875 -18.328125 C 13.484375 -18.328125 13.453125 -18.382812 13.453125 -18.5 C 13.453125 -18.625 13.484375 -18.6875 13.546875 -18.6875 L 15.015625 -18.65625 C 15.847656 -18.625 16.59375 -18.609375 17.25 -18.609375 C 17.632812 -18.609375 18.101562 -18.625 18.65625 -18.65625 Z M 19.890625 -18.6875 "/></g></g></g><g fill="#ddcb28" fill-opacity="1"><g transform="translate(237.145868, 289.88961)"><g><path d="M 21.4375 -0.359375 C 21.539062 -0.359375 21.59375 -0.296875 21.59375 -0.171875 C 21.59375 -0.0546875 21.539062 0 21.4375 0 C 21.039062 0 20.425781 -0.0195312 19.59375 -0.0625 C 18.707031 -0.101562 18.078125 -0.125 17.703125 -0.125 C 17.203125 -0.125 16.59375 -0.101562 15.875 -0.0625 C 15.195312 -0.0195312 14.660156 0 14.265625 0 C 14.179688 0 14.140625 -0.0546875 14.140625 -0.171875 C 14.140625 -0.296875 14.179688 -0.359375 14.265625 -0.359375 C 14.785156 -0.359375 15.160156 -0.410156 15.390625 -0.515625 C 15.617188 -0.628906 15.734375 -0.828125 15.734375 -1.109375 C 15.734375 -1.441406 15.53125 -2.007812 15.125 -2.8125 L 12.015625 -8.9375 L 6.703125 -8.9375 L 4.578125 -4.25 C 4.316406 -3.664062 4.1875 -3.125 4.1875 -2.625 C 4.1875 -1.914062 4.441406 -1.359375 4.953125 -0.953125 C 5.460938 -0.554688 6.144531 -0.359375 7 -0.359375 C 7.09375 -0.359375 7.140625 -0.296875 7.140625 -0.171875 C 7.140625 -0.0546875 7.09375 0 7 0 C 6.632812 0 6.113281 -0.0195312 5.4375 -0.0625 C 4.6875 -0.101562 4.03125 -0.125 3.46875 -0.125 C 2.925781 -0.125 2.28125 -0.101562 1.53125 -0.0625 C 0.851562 -0.0195312 0.300781 0 -0.125 0 C -0.195312 0 -0.234375 -0.0546875 -0.234375 -0.171875 C -0.234375 -0.296875 -0.195312 -0.359375 -0.125 -0.359375 C 0.4375 -0.359375 0.90625 -0.472656 1.28125 -0.703125 C 1.664062 -0.929688 2.046875 -1.335938 2.421875 -1.921875 C 2.796875 -2.515625 3.242188 -3.390625 3.765625 -4.546875 L 10.265625 -18.8125 C 10.296875 -18.875 10.382812 -18.90625 10.53125 -18.90625 C 10.6875 -18.90625 10.773438 -18.875 10.796875 -18.8125 L 18.265625 -4.09375 C 18.960938 -2.675781 19.539062 -1.695312 20 -1.15625 C 20.457031 -0.625 20.9375 -0.359375 21.4375 -0.359375 Z M 7.09375 -9.78125 L 11.609375 -9.78125 L 9.21875 -14.5 Z M 7.09375 -9.78125 "/></g></g></g><g fill="#ddcb28" fill-opacity="1"><g transform="translate(264.830445, 289.88961)"><g><path d="M 5.203125 -15.671875 C 5.203125 -14.953125 5.382812 -14.3125 5.75 -13.75 C 6.125 -13.195312 6.578125 -12.707031 7.109375 -12.28125 C 7.648438 -11.863281 8.378906 -11.359375 9.296875 -10.765625 C 10.296875 -10.128906 11.09375 -9.570312 11.6875 -9.09375 C 12.289062 -8.613281 12.800781 -8.03125 13.21875 -7.34375 C 13.632812 -6.65625 13.84375 -5.863281 13.84375 -4.96875 C 13.84375 -3.925781 13.5625 -3 13 -2.1875 C 12.445312 -1.382812 11.675781 -0.757812 10.6875 -0.3125 C 9.707031 0.132812 8.609375 0.359375 7.390625 0.359375 C 6.492188 0.359375 5.554688 0.234375 4.578125 -0.015625 C 3.597656 -0.265625 2.941406 -0.539062 2.609375 -0.84375 C 2.503906 -0.914062 2.425781 -0.988281 2.375 -1.0625 C 2.320312 -1.132812 2.296875 -1.25 2.296875 -1.40625 L 2.21875 -6.15625 L 2.21875 -6.1875 C 2.21875 -6.269531 2.265625 -6.316406 2.359375 -6.328125 C 2.460938 -6.335938 2.523438 -6.300781 2.546875 -6.21875 C 3.140625 -5 3.660156 -4.007812 4.109375 -3.25 C 4.554688 -2.5 5.125 -1.832031 5.8125 -1.25 C 6.5 -0.675781 7.285156 -0.390625 8.171875 -0.390625 C 8.960938 -0.390625 9.617188 -0.601562 10.140625 -1.03125 C 10.660156 -1.457031 10.921875 -2.191406 10.921875 -3.234375 C 10.921875 -4.109375 10.722656 -4.875 10.328125 -5.53125 C 9.941406 -6.1875 9.46875 -6.742188 8.90625 -7.203125 C 8.351562 -7.660156 7.585938 -8.210938 6.609375 -8.859375 C 5.648438 -9.472656 4.90625 -10 4.375 -10.4375 C 3.851562 -10.875 3.398438 -11.398438 3.015625 -12.015625 C 2.640625 -12.640625 2.453125 -13.367188 2.453125 -14.203125 C 2.453125 -15.265625 2.753906 -16.15625 3.359375 -16.875 C 3.972656 -17.601562 4.753906 -18.140625 5.703125 -18.484375 C 6.660156 -18.835938 7.671875 -19.015625 8.734375 -19.015625 C 9.429688 -19.015625 10.140625 -18.945312 10.859375 -18.8125 C 11.578125 -18.6875 12.15625 -18.535156 12.59375 -18.359375 C 12.769531 -18.285156 12.890625 -18.203125 12.953125 -18.109375 C 13.015625 -18.015625 13.046875 -17.898438 13.046875 -17.765625 L 13.046875 -13.375 C 13.046875 -13.3125 12.992188 -13.265625 12.890625 -13.234375 C 12.785156 -13.203125 12.722656 -13.21875 12.703125 -13.28125 L 12.46875 -13.84375 C 11.96875 -15.101562 11.382812 -16.171875 10.71875 -17.046875 C 10.050781 -17.921875 9.117188 -18.359375 7.921875 -18.359375 C 7.128906 -18.359375 6.476562 -18.128906 5.96875 -17.671875 C 5.457031 -17.210938 5.203125 -16.546875 5.203125 -15.671875 Z M 5.203125 -15.671875 "/></g></g></g><g fill="#ddcb28" fill-opacity="1"><g transform="translate(286.506266, 289.88961)"><g><path d="M 14.828125 -4.75 C 14.828125 -4.789062 14.867188 -4.8125 14.953125 -4.8125 C 15.015625 -4.8125 15.066406 -4.796875 15.109375 -4.765625 C 15.160156 -4.734375 15.1875 -4.707031 15.1875 -4.6875 C 14.988281 -3.132812 14.890625 -1.722656 14.890625 -0.453125 C 14.890625 -0.285156 14.859375 -0.164062 14.796875 -0.09375 C 14.742188 -0.03125 14.625 0 14.4375 0 L 1.21875 0 C 1.164062 0 1.140625 -0.0546875 1.140625 -0.171875 C 1.140625 -0.296875 1.164062 -0.359375 1.21875 -0.359375 C 1.863281 -0.359375 2.328125 -0.40625 2.609375 -0.5 C 2.898438 -0.601562 3.09375 -0.800781 3.1875 -1.09375 C 3.289062 -1.382812 3.34375 -1.828125 3.34375 -2.421875 L 3.34375 -16.265625 C 3.34375 -16.867188 3.289062 -17.304688 3.1875 -17.578125 C 3.09375 -17.859375 2.894531 -18.050781 2.59375 -18.15625 C 2.300781 -18.269531 1.84375 -18.328125 1.21875 -18.328125 C 1.164062 -18.328125 1.140625 -18.382812 1.140625 -18.5 C 1.140625 -18.625 1.164062 -18.6875 1.21875 -18.6875 L 13.90625 -18.6875 C 14.101562 -18.6875 14.203125 -18.597656 14.203125 -18.421875 L 14.265625 -14.4375 C 14.265625 -14.40625 14.207031 -14.378906 14.09375 -14.359375 C 13.988281 -14.335938 13.925781 -14.359375 13.90625 -14.421875 C 13.582031 -15.578125 13.039062 -16.429688 12.28125 -16.984375 C 11.53125 -17.546875 10.535156 -17.828125 9.296875 -17.828125 L 8.40625 -17.828125 C 7.800781 -17.828125 7.359375 -17.695312 7.078125 -17.4375 C 6.804688 -17.175781 6.671875 -16.773438 6.671875 -16.234375 L 6.671875 -10.140625 L 9.15625 -10.140625 C 10.3125 -10.140625 11.195312 -10.335938 11.8125 -10.734375 C 12.425781 -11.128906 12.734375 -11.6875 12.734375 -12.40625 C 12.734375 -12.46875 12.785156 -12.5 12.890625 -12.5 C 13.003906 -12.5 13.0625 -12.46875 13.0625 -12.40625 L 13.046875 -9.71875 L 13.0625 -8.28125 C 13.101562 -7.601562 13.125 -7.066406 13.125 -6.671875 C 13.125 -6.628906 13.0625 -6.609375 12.9375 -6.609375 C 12.820312 -6.609375 12.765625 -6.628906 12.765625 -6.671875 C 12.765625 -7.484375 12.453125 -8.125 11.828125 -8.59375 C 11.203125 -9.0625 10.300781 -9.296875 9.125 -9.296875 L 6.671875 -9.296875 L 6.671875 -2.546875 C 6.671875 -1.960938 6.78125 -1.53125 7 -1.25 C 7.21875 -0.976562 7.566406 -0.84375 8.046875 -0.84375 L 9.03125 -0.84375 C 10.582031 -0.84375 11.828125 -1.160156 12.765625 -1.796875 C 13.703125 -2.429688 14.390625 -3.414062 14.828125 -4.75 Z M 14.828125 -4.75 "/></g></g></g><g fill="#ddcb28" fill-opacity="1"><g transform="translate(309.288183, 289.88961)"><g><path d="M 14.828125 -4.75 C 14.828125 -4.789062 14.867188 -4.8125 14.953125 -4.8125 C 15.015625 -4.8125 15.066406 -4.796875 15.109375 -4.765625 C 15.160156 -4.734375 15.1875 -4.707031 15.1875 -4.6875 C 14.988281 -3.132812 14.890625 -1.722656 14.890625 -0.453125 C 14.890625 -0.285156 14.859375 -0.164062 14.796875 -0.09375 C 14.742188 -0.03125 14.625 0 14.4375 0 L 1.21875 0 C 1.164062 0 1.140625 -0.0546875 1.140625 -0.171875 C 1.140625 -0.296875 1.164062 -0.359375 1.21875 -0.359375 C 1.863281 -0.359375 2.328125 -0.40625 2.609375 -0.5 C 2.898438 -0.601562 3.09375 -0.800781 3.1875 -1.09375 C 3.289062 -1.382812 3.34375 -1.828125 3.34375 -2.421875 L 3.34375 -16.265625 C 3.34375 -16.867188 3.289062 -17.304688 3.1875 -17.578125 C 3.09375 -17.859375 2.894531 -18.050781 2.59375 -18.15625 C 2.300781 -18.269531 1.84375 -18.328125 1.21875 -18.328125 C 1.164062 -18.328125 1.140625 -18.382812 1.140625 -18.5 C 1.140625 -18.625 1.164062 -18.6875 1.21875 -18.6875 L 13.90625 -18.6875 C 14.101562 -18.6875 14.203125 -18.597656 14.203125 -18.421875 L 14.265625 -14.4375 C 14.265625 -14.40625 14.207031 -14.378906 14.09375 -14.359375 C 13.988281 -14.335938 13.925781 -14.359375 13.90625 -14.421875 C 13.582031 -15.578125 13.039062 -16.429688 12.28125 -16.984375 C 11.53125 -17.546875 10.535156 -17.828125 9.296875 -17.828125 L 8.40625 -17.828125 C 7.800781 -17.828125 7.359375 -17.695312 7.078125 -17.4375 C 6.804688 -17.175781 6.671875 -16.773438 6.671875 -16.234375 L 6.671875 -10.140625 L 9.15625 -10.140625 C 10.3125 -10.140625 11.195312 -10.335938 11.8125 -10.734375 C 12.425781 -11.128906 12.734375 -11.6875 12.734375 -12.40625 C 12.734375 -12.46875 12.785156 -12.5 12.890625 -12.5 C 13.003906 -12.5 13.0625 -12.46875 13.0625 -12.40625 L 13.046875 -9.71875 L 13.0625 -8.28125 C 13.101562 -7.601562 13.125 -7.066406 13.125 -6.671875 C 13.125 -6.628906 13.0625 -6.609375 12.9375 -6.609375 C 12.820312 -6.609375 12.765625 -6.628906 12.765625 -6.671875 C 12.765625 -7.484375 12.453125 -8.125 11.828125 -8.59375 C 11.203125 -9.0625 10.300781 -9.296875 9.125 -9.296875 L 6.671875 -9.296875 L 6.671875 -2.546875 C 6.671875 -1.960938 6.78125 -1.53125 7 -1.25 C 7.21875 -0.976562 7.566406 -0.84375 8.046875 -0.84375 L 9.03125 -0.84375 C 10.582031 -0.84375 11.828125 -1.160156 12.765625 -1.796875 C 13.703125 -2.429688 14.390625 -3.414062 14.828125 -4.75 Z M 14.828125 -4.75 "/></g></g></g><g fill="#ddcb28" fill-opacity="1"><g transform="translate(332.0701, 289.88961)"><g><path d="M 24.90625 -0.359375 C 24.945312 -0.359375 24.96875 -0.296875 24.96875 -0.171875 C 24.96875 -0.0546875 24.945312 0 24.90625 0 C 24.226562 0 23.691406 -0.0078125 23.296875 -0.03125 L 21.078125 -0.0625 L 18.84375 -0.03125 C 18.457031 -0.0078125 17.9375 0 17.28125 0 C 17.226562 0 17.203125 -0.0546875 17.203125 -0.171875 C 17.203125 -0.296875 17.226562 -0.359375 17.28125 -0.359375 C 18.125 -0.359375 18.691406 -0.457031 18.984375 -0.65625 C 19.285156 -0.851562 19.4375 -1.269531 19.4375 -1.90625 L 19.40625 -2.421875 L 18.78125 -14.65625 L 12.625 -0.203125 C 12.582031 -0.128906 12.5 -0.09375 12.375 -0.09375 C 12.257812 -0.09375 12.179688 -0.128906 12.140625 -0.203125 L 4.578125 -14.59375 L 4.34375 -3.796875 C 4.320312 -2.722656 4.535156 -1.878906 4.984375 -1.265625 C 5.429688 -0.660156 6.0625 -0.359375 6.875 -0.359375 C 6.9375 -0.359375 6.96875 -0.296875 6.96875 -0.171875 C 6.96875 -0.0546875 6.9375 0 6.875 0 C 6.34375 0 5.925781 -0.0078125 5.625 -0.03125 L 3.984375 -0.0625 L 2.09375 -0.03125 C 1.769531 -0.0078125 1.34375 0 0.8125 0 C 0.75 0 0.71875 -0.0546875 0.71875 -0.171875 C 0.71875 -0.296875 0.75 -0.359375 0.8125 -0.359375 C 1.625 -0.359375 2.269531 -0.664062 2.75 -1.28125 C 3.226562 -1.90625 3.476562 -2.742188 3.5 -3.796875 L 3.765625 -16.171875 L 3.734375 -16.203125 C 3.335938 -16.941406 2.925781 -17.476562 2.5 -17.8125 C 2.070312 -18.15625 1.578125 -18.328125 1.015625 -18.328125 C 0.953125 -18.328125 0.921875 -18.382812 0.921875 -18.5 C 0.921875 -18.625 0.953125 -18.6875 1.015625 -18.6875 L 2.421875 -18.65625 C 2.703125 -18.632812 3.0625 -18.625 3.5 -18.625 L 5.078125 -18.65625 C 5.265625 -18.675781 5.492188 -18.6875 5.765625 -18.6875 C 6.023438 -18.6875 6.222656 -18.597656 6.359375 -18.421875 C 6.503906 -18.242188 6.765625 -17.816406 7.140625 -17.140625 L 13.671875 -4.90625 L 19.34375 -17.9375 C 19.46875 -18.21875 19.59375 -18.410156 19.71875 -18.515625 C 19.851562 -18.628906 20.03125 -18.6875 20.25 -18.6875 C 20.425781 -18.6875 20.628906 -18.675781 20.859375 -18.65625 C 21.085938 -18.632812 21.351562 -18.625 21.65625 -18.625 L 23.421875 -18.65625 C 23.691406 -18.675781 24.085938 -18.6875 24.609375 -18.6875 C 24.671875 -18.6875 24.703125 -18.625 24.703125 -18.5 C 24.703125 -18.382812 24.671875 -18.328125 24.609375 -18.328125 C 23.671875 -18.328125 22.992188 -18.140625 22.578125 -17.765625 C 22.160156 -17.390625 21.972656 -16.800781 22.015625 -16 L 22.734375 -2.421875 C 22.765625 -1.804688 22.835938 -1.359375 22.953125 -1.078125 C 23.066406 -0.796875 23.265625 -0.601562 23.546875 -0.5 C 23.835938 -0.40625 24.289062 -0.359375 24.90625 -0.359375 Z M 24.90625 -0.359375 "/></g></g></g></svg>